<svg xmlns="http://www.w3.org/2000/svg" width="500" height="500" viewBox="0 0 500 500" version="1.1"><path d="M 447.929 253.367 C 432.147 257.623, 421.683 271.441, 421.656 288.066 C 421.640 297.533, 424.114 303.119, 431.108 309.407 C 437.151 314.840, 443.734 317.176, 453 317.176 C 471.912 317.176, 484.853 305.373, 488.550 284.750 L 489.223 281 471.749 281 L 454.276 281 453.138 286.667 C 452.512 289.784, 452 292.709, 452 293.167 C 452 293.625, 456.054 294, 461.008 294 C 469.465 294, 469.947 294.111, 468.882 295.817 C 465.022 301.998, 452.919 304.909, 446.071 301.305 C 440.486 298.365, 438.500 294.791, 438.500 287.677 C 438.500 276.264, 445.314 268.053, 455.485 267.210 C 461.980 266.671, 466.077 268.114, 469.456 272.130 C 471.766 274.875, 472.240 275, 480.366 275 L 488.860 275 487.952 271.832 C 483.812 257.398, 465.062 248.748, 447.929 253.367 M 164.101 258.143 C 163.504 261.089, 160.957 274.300, 158.442 287.500 C 155.927 300.700, 153.625 312.512, 153.326 313.750 C 152.796 315.949, 152.976 316, 161.230 316 L 169.677 316 171.477 305.500 C 172.902 297.182, 173.616 295, 174.911 295 C 175.911 295, 179.058 299.087, 183.014 305.523 L 189.482 316.046 205.991 315.773 L 222.500 315.500 225.500 309.753 L 228.500 304.006 239.781 304.003 C 247.932 304.001, 251.172 304.347, 251.457 305.250 C 251.673 305.938, 252.137 308.637, 252.487 311.250 L 253.123 316 261.061 316 C 267.983 316, 268.991 315.776, 268.928 314.250 C 268.889 313.288, 266.294 299.225, 263.160 283 L 257.464 253.500 248.982 253.241 L 240.500 252.982 223.401 282.974 L 206.301 312.965 200.166 302.952 C 194.115 293.077, 194.062 292.927, 196.322 292.068 C 203.459 289.354, 209 281.066, 209 273.105 C 209 264.536, 206.076 259.689, 198.500 255.698 C 195.095 253.905, 192.320 253.531, 179.843 253.189 L 165.186 252.787 164.101 258.143 M 279.655 254.750 C 279.391 255.713, 278.886 258.300, 278.534 260.500 C 278.182 262.700, 277.662 265.288, 277.379 266.250 C 276.922 267.808, 277.696 268, 284.433 268 C 288.595 268, 292 268.418, 292 268.928 C 292 269.911, 284.411 309.919, 283.498 313.750 C 282.975 315.946, 283.162 316, 291.271 316 L 299.580 316 304.075 292.250 L 308.570 268.500 316.223 268.209 L 323.875 267.918 325.006 262.209 C 325.629 259.069, 326.362 255.713, 326.636 254.750 C 327.101 253.119, 325.539 253, 303.635 253 C 282.103 253, 280.095 253.147, 279.655 254.750 M 332.525 254.250 C 332.044 255.709, 321 314.178, 321 315.266 C 321 315.670, 324.591 316, 328.981 316 C 336.440 316, 336.995 315.853, 337.471 313.750 C 337.751 312.512, 340.239 299.575, 343.001 285 C 345.762 270.425, 348.277 257.262, 348.590 255.750 L 349.159 253 341.048 253 C 335.446 253, 332.810 253.387, 332.525 254.250 M 360.607 254.750 C 360.028 256.671, 349 314.215, 349 315.317 C 349 315.693, 352.519 316, 356.820 316 L 364.640 316 367.949 298.250 C 369.770 288.488, 371.545 280.179, 371.894 279.786 C 372.243 279.393, 377.922 287.372, 384.514 297.518 L 396.500 315.965 402.508 315.983 L 408.516 316 414.306 285.250 C 417.491 268.337, 420.075 254.144, 420.048 253.708 C 420.022 253.272, 416.521 253.047, 412.268 253.208 L 404.536 253.500 401.085 271.750 C 399.187 281.788, 397.379 289.988, 397.067 289.973 C 396.755 289.959, 390.986 281.634, 384.247 271.473 L 371.995 253 366.565 253 C 362.261 253, 361.025 253.363, 360.607 254.750 M 178.527 269.250 C 177.083 275.607, 176.046 280.580, 176.024 281.250 C 175.957 283.307, 188.834 281.110, 190.811 278.727 C 195.278 273.346, 191.357 267, 183.565 267 C 179.689 267, 178.965 267.323, 178.527 269.250 M 242.575 277.500 C 240.453 281.350, 238.070 285.552, 237.279 286.837 C 236.488 288.122, 236.048 289.381, 236.302 289.635 C 236.556 289.889, 239.637 289.962, 243.148 289.798 L 249.533 289.500 247.982 280 L 246.432 270.500 242.575 277.500" stroke="none" fill="#0596b1" fill-rule="evenodd"/><path d="M 43.286 172.451 C 33.067 175.644, 24.793 182.945, 20.135 192.880 C 17.863 197.726, 17.502 199.809, 17.513 208 C 17.523 215.789, 17.913 218.228, 19.678 221.545 C 22.337 226.540, 29.910 233.647, 34.713 235.654 C 47.871 241.151, 64.064 238.261, 74.887 228.483 C 78.066 225.611, 85 214.728, 85 212.610 C 85 212.275, 81.063 212.006, 76.250 212.012 L 67.500 212.025 65.322 215.388 C 58.730 225.569, 40.715 225.198, 35.988 214.784 C 32.671 207.476, 33.873 199.493, 39.203 193.422 C 43.491 188.538, 47.540 186.696, 54.191 186.602 C 60.571 186.511, 64.042 188.387, 67.500 193.795 C 69.471 196.878, 69.618 196.924, 77.750 196.961 C 85.707 196.999, 86 196.918, 86 194.696 C 86 190.840, 81.063 182.210, 76.741 178.510 C 68.655 171.589, 54.340 168.996, 43.286 172.451 M 99.989 172.750 C 99.983 173.162, 97.285 187.450, 93.992 204.500 C 90.700 221.550, 88.004 235.838, 88.003 236.250 C 88.001 236.662, 91.825 237, 96.500 237 C 101.175 237, 105 236.678, 105 236.284 C 105 235.890, 107.700 221.514, 111 204.337 C 114.300 187.159, 117 172.857, 117 172.553 C 117 172.249, 113.175 172, 108.500 172 C 103.825 172, 99.995 172.338, 99.989 172.750 M 128.663 174.250 C 127.665 178.310, 117 234.605, 117 235.817 C 117 236.628, 119.492 237, 124.929 237 L 132.858 237 134.031 231.353 C 134.675 228.247, 136.400 219.462, 137.862 211.831 L 140.521 197.956 153.371 217.478 L 166.220 237 172.360 236.996 L 178.500 236.992 184.403 205.746 C 187.649 188.561, 190.510 173.938, 190.760 173.250 C 191.100 172.313, 189.105 172, 182.792 172 L 174.371 172 171.596 186.750 C 170.070 194.863, 168.361 203.701, 167.798 206.392 L 166.774 211.283 153.817 191.642 L 140.860 172 135.038 172 C 129.832 172, 129.158 172.238, 128.663 174.250 M 201.997 172.750 C 201.996 173.162, 199.300 187.450, 196.008 204.500 C 192.715 221.550, 190.017 235.846, 190.011 236.270 C 190.005 236.693, 199.769 236.918, 211.710 236.770 L 233.419 236.500 234.666 230.500 C 235.352 227.200, 235.932 224.162, 235.956 223.750 C 235.980 223.338, 230.099 223, 222.886 223 L 209.773 223 210.467 218.372 C 211.629 210.620, 210.906 211, 224.479 211 L 236.744 211 237.346 207.250 C 237.676 205.188, 238.240 202.037, 238.598 200.250 L 239.250 197 226.994 197 L 214.738 197 215.358 193.250 C 215.699 191.188, 215.983 188.938, 215.989 188.250 C 215.997 187.315, 219.259 187, 228.933 187 C 243.273 187, 242.174 187.567, 243.466 179.500 C 243.818 177.300, 244.338 174.713, 244.621 173.750 C 245.099 172.122, 243.637 172, 223.567 172 C 211.705 172, 201.999 172.338, 201.997 172.750" stroke="none" fill="#fbfbfb" fill-rule="evenodd"/></svg>